Coordinates
version=1
nRows=16
nColumns=63
inDegrees=yes

Units are S.I. units (second, meters, Newtons, ...)
If the header above contains a line with 'inDegrees', this indicates whether rotational values are in degrees (yes) or radians (no).

endheader
time	pelvis_tilt	pelvis_list	pelvis_rotation	pelvis_tx	pelvis_ty	pelvis_tz	hip_flexion_r	hip_adduction_r	hip_rotation_r	knee_angle_r	knee_angle_r_beta	ankle_angle_r	subtalar_angle_r	mtp_angle_r	hip_flexion_l	hip_adduction_l	hip_rotation_l	knee_angle_l	knee_angle_l_beta	ankle_angle_l	subtalar_angle_l	mtp_angle_l	L5_S1_Flex_Ext	L5_S1_Lat_Bending	L5_S1_axial_rotation	L4_L5_Flex_Ext	L4_L5_Lat_Bending	L4_L5_axial_rotation	L3_L4_Flex_Ext	L3_L4_Lat_Bending	L3_L4_axial_rotation	L2_L3_Flex_Ext	L2_L3_Lat_Bending	L2_L3_axial_rotation	L1_L2_Flex_Ext	L1_L2_Lat_Bending	L1_L2_axial_rotation	L1_T12_Flex_Ext	L1_T12_Lat_Bending	L1_T12_axial_rotation	Abs_r3	Abs_r2	Abs_r1	Abs_t1	Abs_t2	neck_flexion	neck_bending	neck_rotation	arm_flex_r	arm_add_r	arm_rot_r	elbow_flex_r	pro_sup_r	wrist_flex_r	wrist_dev_r	arm_flex_l	arm_add_l	arm_rot_l	elbow_flex_l	pro_sup_l	wrist_flex_l	wrist_dev_l
3.372881	0.508733	-2.403815	86.193648	0.187900	0.976796	0.498168	4.226128	1.339134	-3.757709	7.311577	0.127611	21.997488	-0.727839	0.000000	5.754535	-0.587080	1.055869	7.548084	0.131739	23.593966	-4.489142	0.000000	0.269513	0.202441	0.176345	0.500512	0.269247	0.187366	0.442782	0.492216	0.187366	0.308026	0.492216	0.154302	0.250269	0.412819	0.143280	0.154000	0.313582	0.132259	1.925102	2.290058	0.980776	0.000000	0.000000	26.620935	1.088523	1.751810	9.122634	-9.547001	51.328610	43.245767	69.662498	5.210155	11.347629	17.702892	-7.220914	65.269516	38.129130	80.986500	5.013295	-8.037557
3.389831	0.340685	-2.367533	86.339285	0.188046	0.976944	0.498394	4.187407	1.185959	-3.705024	7.334644	0.128014	21.945604	-1.105352	0.000000	5.687454	-0.447412	1.033421	7.415263	0.129421	23.500891	-4.154570	0.000000	0.256385	0.183176	0.164892	0.476132	0.243624	0.175198	0.421215	0.445375	0.175198	0.293022	0.445375	0.144281	0.238079	0.373533	0.133975	0.146498	0.283740	0.123669	1.831331	2.072127	0.917082	0.000000	0.000000	26.471594	1.216365	2.131606	9.159786	-9.596016	51.795479	43.428415	67.197034	5.325886	11.714951	17.661025	-7.268063	65.149127	38.186473	80.208600	5.487982	-8.007882
3.406780	0.142327	-2.249112	86.449434	0.188232	0.977221	0.498770	4.075063	1.004950	-3.530040	7.357185	0.128407	21.831056	-1.642684	0.000000	5.518218	-0.289276	0.826437	7.238325	0.126333	23.444323	-3.562963	0.000000	0.239861	0.167222	0.137312	0.445446	0.222406	0.145894	0.394068	0.406584	0.145894	0.274137	0.406584	0.120148	0.222735	0.341000	0.111566	0.137057	0.259027	0.102984	1.713303	1.891653	0.763690	0.000000	0.000000	26.205442	1.346304	2.672344	9.274296	-9.646717	52.458531	43.549211	64.065376	5.411411	11.983465	17.689192	-7.360964	65.245648	38.230401	79.221502	5.917743	-8.073169
3.423729	-0.073414	-2.057754	86.521086	0.188428	0.977596	0.499270	3.901976	0.804199	-3.279706	7.388747	0.128958	21.678187	-2.263164	0.000000	5.252789	-0.107663	0.618858	7.011139	0.122367	23.394289	-2.974455	0.000000	0.221425	0.155481	0.102664	0.411208	0.206790	0.109080	0.363779	0.378038	0.109080	0.253066	0.378038	0.089831	0.205615	0.317058	0.083414	0.126522	0.240841	0.076998	1.581615	1.758838	0.570986	0.000000	0.000000	25.827262	1.466308	3.372578	9.347859	-9.657658	52.803449	43.636921	61.471908	5.550612	12.180739	17.791988	-7.485389	65.528903	38.276584	78.337058	6.287917	-8.152290
3.440678	-0.296912	-1.812128	86.552427	0.188623	0.978044	0.499897	3.687858	0.593921	-2.985730	7.425722	0.129603	21.490019	-2.932952	0.000000	4.918022	0.076148	0.220988	6.747673	0.117769	23.393568	-2.133889	0.000000	0.202392	0.148064	0.061196	0.375862	0.196925	0.065020	0.332509	0.360003	0.065020	0.231313	0.360003	0.053546	0.187941	0.301933	0.049721	0.115647	0.229352	0.045897	1.445664	1.674933	0.340352	0.000000	0.000000	25.338824	1.551917	4.170162	9.435196	-9.654059	53.034365	43.641890	59.120485	5.522568	12.216914	17.920138	-7.668426	65.876344	38.380256	77.471823	6.534655	-8.119740
3.457627	-0.519752	-1.545819	86.533947	0.188801	0.978496	0.500594	3.469109	0.376232	-2.707628	7.477619	0.130509	21.319547	-3.512734	0.000000	4.550534	0.265214	-0.222420	6.456669	0.112690	23.414681	-1.269978	0.000000	0.186059	0.144919	0.024838	0.345531	0.192742	0.026391	0.305677	0.352355	0.026391	0.212647	0.352355	0.021733	0.172775	0.295518	0.020181	0.106314	0.224479	0.018629	1.329003	1.639348	0.138143	0.000000	0.000000	24.763060	1.457621	4.814732	9.418585	-9.616700	52.673222	43.640391	57.854383	5.322845	12.169658	18.070825	-7.881583	66.182096	38.547280	77.211383	6.608150	-7.836295
3.474576	-0.731298	-1.263801	86.471751	0.188929	0.978944	0.501331	3.245400	0.163069	-2.434308	7.535072	0.131512	21.160118	-4.031858	0.000000	4.157841	0.444092	-0.793583	6.144254	0.107237	23.482332	-0.242836	0.000000	0.169430	0.147094	-0.010450	0.314648	0.195635	-0.011103	0.278356	0.357644	-0.011103	0.193642	0.357644	-0.009143	0.157333	0.299954	-0.008490	0.096812	0.227849	-0.007837	1.210221	1.663956	-0.058117	0.000000	0.000000	24.167938	1.274469	5.376751	9.380781	-9.583774	51.892442	43.596255	57.516864	4.875594	11.928998	18.206885	-8.131560	66.379512	38.786733	77.171205	6.435074	-7.337480
3.491525	-0.937019	-1.008836	86.347005	0.189025	0.979300	0.502040	3.073062	-0.055384	-2.216087	7.621150	0.133014	21.069669	-4.362814	0.000000	3.784903	0.628989	-1.339153	5.817583	0.101536	23.556989	0.688930	0.000000	0.156673	0.153183	-0.040603	0.290957	0.203733	-0.043140	0.257397	0.372449	-0.043140	0.179061	0.372449	-0.035527	0.145486	0.312371	-0.032990	0.089523	0.237280	-0.030452	1.119096	1.732837	-0.225820	0.000000	0.000000	23.626590	0.969914	5.728839	9.278418	-9.566171	50.519407	43.555980	58.313332	4.201558	11.539072	18.223104	-8.397574	66.112821	39.147249	77.636631	6.022642	-6.547645
3.508475	-1.112454	-0.766365	86.183726	0.189090	0.979598	0.502737	2.927596	-0.249612	-2.031584	7.721877	0.134772	21.025643	-4.573390	0.000000	3.430800	0.787847	-1.916736	5.508217	0.096137	23.663482	1.619437	0.000000	0.142601	0.163972	-0.069465	0.264823	0.218083	-0.073806	0.234278	0.398682	-0.073806	0.162978	0.398682	-0.060782	0.132419	0.334372	-0.056440	0.081482	0.253993	-0.052099	1.018581	1.854887	-0.386343	0.000000	0.000000	23.158939	0.622370	5.874180	9.197577	-9.595607	48.760454	43.461108	60.089209	3.271317	10.920778	18.174537	-8.688672	65.529665	39.597081	78.369854	5.311717	-5.577179
3.525424	-1.256452	-0.561504	85.956839	0.189141	0.979804	0.503357	2.841130	-0.422023	-1.900815	7.847751	0.136969	21.056371	-4.577512	0.000000	3.112331	0.926393	-2.448366	5.206477	0.090870	23.763223	2.395291	0.000000	0.129622	0.180214	-0.103509	0.240722	0.239685	-0.109978	0.212957	0.438172	-0.109978	0.148146	0.438172	-0.090570	0.120367	0.367492	-0.084101	0.074066	0.279151	-0.077632	0.925880	2.038616	-0.575686	0.000000	0.000000	22.797219	0.349475	6.020705	9.166750	-9.688463	46.744771	43.293393	62.508147	2.135618	10.130063	17.910308	-8.983600	64.241594	40.174500	79.328208	4.390373	-4.449401
3.542373	-1.364091	-0.394260	85.658654	0.189203	0.979937	0.503876	2.809573	-0.566422	-1.794183	7.990456	0.139460	21.154346	-4.387454	0.000000	2.828446	1.034508	-3.024402	4.916162	0.085803	23.873243	3.106897	0.000000	0.116961	0.200839	-0.132131	0.217208	0.267116	-0.140389	0.192155	0.488320	-0.140389	0.133675	0.488320	-0.115615	0.108610	0.409551	-0.107357	0.066831	0.311099	-0.099098	0.835440	2.271930	-0.734875	0.000000	0.000000	22.539444	0.128893	6.102284	9.157097	-9.849965	44.405080	43.052659	65.546651	0.931840	9.212198	17.480100	-9.269569	62.437125	40.823677	80.365639	3.238225	-3.282409
3.559322	-1.428869	-0.257635	85.296161	0.189290	0.980024	0.504217	2.797620	-0.675563	-1.725201	8.106261	0.141481	21.297382	-3.984259	0.000000	2.564882	1.108085	-3.641980	4.636099	0.080915	23.991790	3.739262	0.000000	0.103711	0.224940	-0.146232	0.192602	0.299171	-0.155372	0.170387	0.546920	-0.155372	0.118531	0.546920	-0.127953	0.096306	0.458698	-0.118814	0.059261	0.348432	-0.109674	0.740798	2.544569	-0.813300	0.000000	0.000000	22.387122	-0.024159	6.102718	9.115800	-10.082268	41.704856	42.771139	69.098818	-0.310099	8.251575	16.906489	-9.553830	60.236047	41.520754	81.432356	1.866715	-2.081144
3.576271	-1.448130	-0.160154	84.891014	0.189385	0.980081	0.504367	2.817459	-0.749431	-1.767590	8.213325	0.143350	21.499185	-3.289776	0.000000	2.326575	1.138726	-4.269194	4.360740	0.076109	24.113265	4.270265	0.000000	0.091887	0.252425	-0.160178	0.170643	0.335725	-0.170189	0.150961	0.613745	-0.170189	0.105017	0.613745	-0.140156	0.085326	0.514744	-0.130144	0.052504	0.391006	-0.120133	0.656337	2.855479	-0.890861	0.000000	0.000000	22.312171	-0.091867	6.117589	9.160542	-10.389134	39.019602	42.319835	72.554994	-1.665140	7.248578	16.144689	-9.851347	57.609938	42.218584	82.365814	0.521621	-0.994310
3.593220	-1.423815	-0.083714	84.422597	0.189528	0.980146	0.504260	2.833609	-0.779781	-1.755879	8.283239	0.144570	21.692168	-2.533699	0.000000	2.079222	1.139057	-4.864396	4.076820	0.071154	24.214404	4.612660	0.000000	0.080208	0.282145	-0.151957	0.148954	0.375253	-0.161454	0.131773	0.686007	-0.161454	0.091669	0.686007	-0.132962	0.074481	0.575350	-0.123465	0.045831	0.437043	-0.113968	0.572916	3.191681	-0.845138	0.000000	0.000000	22.303138	-0.111398	6.073776	9.181283	-10.770148	36.207115	41.803739	75.721423	-3.073304	6.365365	15.284301	-10.176315	54.817025	42.871738	83.387824	-0.910536	0.119843
3.610169	-1.357925	-0.022048	83.890614	0.189739	0.980235	0.503869	2.832057	-0.771303	-1.708773	8.315070	0.145125	21.868019	-1.714733	0.000000	1.817082	1.110680	-5.494691	3.799067	0.066306	24.308383	4.855680	0.000000	0.069346	0.313750	-0.116274	0.128783	0.417287	-0.123541	0.113929	0.762852	-0.123541	0.079256	0.762852	-0.101740	0.064395	0.639799	-0.094473	0.039624	0.485999	-0.087205	0.495333	3.549202	-0.646681	0.000000	0.000000	22.339346	-0.104132	5.988992	9.133939	-11.209442	33.187312	41.265080	78.789901	-4.500511	5.632382	14.397472	-10.527721	52.164333	43.380756	84.430530	-2.521007	1.152400
3.627119	-1.262178	0.040674	83.302640	0.190067	0.980358	0.503194	2.787167	-0.734076	-1.608147	8.298398	0.144834	22.012921	-0.875784	0.000000	1.516821	1.063135	-6.124775	3.519945	0.061435	24.378918	5.001776	0.000000	0.058318	0.344958	-0.054499	0.108302	0.458793	-0.057906	0.095811	0.838730	-0.057906	0.066652	0.838730	-0.047687	0.054154	0.703437	-0.044281	0.033323	0.534339	-0.040874	0.416560	3.902228	-0.303109	0.000000	0.000000	22.397407	-0.078448	5.878995	9.011174	-11.689677	30.020733	40.751145	81.611285	-5.966261	5.061645	13.512779	-10.909339	49.773316	43.696413	85.475431	-4.262575	2.076199
